<?xml version="1.0" standalone="no"?>
<!DOCTYPE svg PUBLIC "-//W3C//DTD SVG 20010904//EN"
 "http://www.w3.org/TR/2001/REC-SVG-20010904/DTD/svg10.dtd">
<svg version="1.0" xmlns="http://www.w3.org/2000/svg"
 width="193.000000pt" height="179.000000pt" viewBox="0 0 193.000000 179.000000"
 preserveAspectRatio="xMidYMid meet">
<metadata>
Created by potrace 1.16, written by Peter Selinger 2001-2019
</metadata>
<g transform="translate(0.000000,179.000000) scale(0.015078,-0.028189)"
fill="#000000" stroke="none">
<path d="M0 4675 l0 -1675 23 5 c12 3 76 14 142 25 66 12 219 39 340 60 121
22 434 75 695 119 947 160 1069 181 1335 231 299 56 726 131 1025 180 107 18
373 63 590 101 773 135 1516 259 1556 259 11 0 14 -27 14 -154 l0 -154 -51 -7
c-28 -4 -63 -9 -77 -11 -88 -12 -162 -29 -162 -36 0 -5 -4 -7 -9 -4 -5 3 -62
-4 -128 -15 -65 -12 -145 -23 -178 -26 -33 -2 -67 -7 -75 -10 -17 -7 -73 -14
-112 -15 -16 -1 -28 -5 -28 -11 0 -5 -6 -4 -14 2 -8 7 -15 8 -18 2 -1 -5 -30
-12 -63 -16 -33 -3 -71 -9 -85 -12 -14 -3 -41 -7 -60 -9 -19 -1 -64 -9 -100
-18 -36 -9 -83 -16 -105 -16 -22 0 -56 -5 -75 -10 -19 -6 -57 -13 -85 -15 -27
-2 -108 -14 -180 -25 -71 -12 -141 -21 -155 -22 -14 0 -29 -3 -35 -8 -5 -4
-28 -8 -50 -8 -22 0 -51 -4 -65 -10 -14 -5 -52 -12 -85 -15 -33 -3 -76 -8 -95
-11 -119 -18 -210 -31 -300 -42 -25 -3 -56 -7 -70 -10 -143 -28 -346 -49 -477
-49 -62 0 -70 -2 -63 -16 5 -9 7 -25 4 -36 -4 -13 0 -22 10 -26 10 -4 13 -13
9 -23 -4 -11 -3 -15 5 -10 7 4 9 -4 5 -27 -3 -19 0 -43 5 -54 6 -11 14 -42 18
-69 13 -93 15 -88 -48 -96 -52 -7 -76 -2 -260 53 -111 33 -209 64 -217 69 -14
8 6 14 79 23 11 2 17 21 21 77 3 41 10 119 14 173 l8 97 -53 0 c-46 0 -52 -2
-48 -18 6 -22 -17 -210 -26 -219 -4 -4 -12 -8 -19 -9 -7 -1 -32 -5 -57 -9 -24
-4 -47 -8 -50 -10 -3 -2 -36 -6 -75 -10 -38 -3 -95 -12 -125 -19 -30 -8 -75
-14 -100 -15 -24 -1 -50 -7 -57 -12 -7 -6 -16 -8 -22 -5 -9 6 -68 -1 -216 -25
-108 -18 -199 -30 -245 -33 -25 -2 -115 -13 -200 -25 -85 -11 -173 -23 -195
-25 -22 -3 -40 -5 -40 -6 0 -2 -74 -8 -166 -14 -25 -2 -52 -6 -58 -11 -7 -4
-83 -9 -168 -11 -102 -2 -160 -7 -167 -15 -8 -9 -4 -10 15 -7 25 4 26 2 22
-24 -3 -20 1 -30 12 -34 13 -5 14 -9 4 -15 -10 -6 -8 -12 8 -27 17 -14 19 -22
11 -30 -9 -9 -6 -12 13 -13 13 0 18 -3 12 -6 -17 -6 -16 -23 1 -23 8 0 16 -11
20 -23 3 -13 16 -35 29 -48 45 -46 39 -76 -11 -50 -9 5 -71 17 -136 27 -66 9
-152 25 -190 35 -39 10 -71 17 -71 16 -12 -23 -25 -260 -25 -457 l0 -256 98
-13 c53 -7 130 -18 170 -25 39 -7 72 -10 72 -7 0 11 59 436 64 461 3 14 3 -5
1 -42 -3 -40 0 -68 5 -68 6 0 10 12 10 28 0 20 3 23 10 12 8 -12 10 -12 16 3
3 9 10 14 15 11 5 -3 9 4 9 15 0 12 3 20 8 20 26 -4 42 3 42 21 0 11 3 19 8
19 4 -1 15 -1 26 0 15 1 16 4 6 16 -14 17 -11 18 44 15 31 -1 43 4 63 26 20
24 26 26 34 14 8 -11 12 -12 16 -2 2 6 11 12 19 12 9 0 13 4 10 9 -3 5 1 12 9
15 9 3 18 -1 21 -8 3 -8 12 -17 19 -20 9 -3 12 0 9 9 -7 18 16 43 34 37 10 -3
10 -7 1 -18 -9 -11 -8 -14 3 -14 34 0 51 45 21 53 -10 3 -2 5 17 5 19 0 29 -2
23 -5 -24 -9 -13 -22 17 -18 38 5 50 12 51 33 0 9 6 4 12 -13 l11 -30 6 33 c3
18 9 32 14 32 5 -1 12 4 17 11 15 25 22 0 11 -41 -6 -23 -6 -42 -1 -46 5 -3 9
0 9 7 0 31 34 88 56 92 13 2 25 -1 28 -7 3 -7 8 -6 15 4 9 13 11 12 11 -3 0
-14 4 -16 19 -7 11 5 39 9 63 9 31 -2 35 -3 15 -6 -16 -3 -26 -10 -24 -16 4
-12 20 -13 92 -4 22 3 49 6 60 7 18 1 19 1 3 11 -10 5 -22 18 -27 27 -8 16 -5
18 26 20 20 2 39 5 43 7 4 2 20 0 36 -5 29 -8 29 -8 -9 -9 -22 -1 -36 -5 -32
-11 3 -5 12 -7 19 -4 7 3 19 -2 26 -11 14 -17 50 -21 50 -5 0 6 10 10 23 11
21 0 21 1 2 9 -14 5 -24 3 -32 -8 -20 -25 -26 -7 -9 25 8 15 15 22 16 16 0 -7
12 -13 26 -13 14 0 23 4 19 10 -3 6 -1 10 4 10 6 0 12 -4 12 -10 1 -5 2 -15 3
-22 0 -6 7 -13 15 -16 8 -3 11 0 7 6 -3 6 4 13 16 15 l23 4 -22 8 c-36 12 -27
23 25 30 26 3 66 10 89 15 23 6 57 10 75 11 18 0 27 3 19 6 -7 3 -52 0 -100
-6 -47 -7 -138 -18 -201 -26 -211 -27 -505 -66 -530 -70 -73 -12 -353 -39
-405 -40 -62 0 -122 12 -111 22 3 3 104 18 223 34 120 15 335 44 478 63 143
20 328 45 410 56 83 12 242 34 355 50 433 61 568 79 643 86 71 6 77 5 77 -12
0 -33 -14 -42 -75 -52 -54 -9 -56 -10 -19 -11 22 0 46 -7 53 -13 10 -9 12 -9
7 -1 -3 6 -2 14 4 18 15 9 13 -52 -10 -285 -11 -113 -29 -344 -40 -515 -11
-170 -27 -395 -35 -500 -8 -104 -24 -305 -35 -445 -11 -140 -20 -275 -20 -300
0 -25 -7 -54 -15 -64 -8 -11 -15 -30 -15 -42 0 -17 -8 -24 -32 -29 -37 -8 -81
-36 -120 -77 -30 -32 -42 -34 -91 -13 -41 17 -67 19 -67 6 0 -5 25 -15 55 -22
30 -7 55 -15 55 -19 0 -4 -9 -15 -19 -24 -10 -10 -21 -33 -23 -51 -3 -30 0
-36 22 -43 14 -5 45 -27 69 -48 43 -39 43 -40 34 -84 l-9 -45 -39 3 c-22 2
-37 1 -33 -3 4 -4 -4 -28 -18 -52 -13 -24 -21 -49 -18 -55 4 -6 -12 -28 -37
-49 l-44 -38 31 -1 c18 0 38 8 49 20 10 11 14 20 9 21 -5 0 0 4 11 8 11 5 25
4 32 -1 7 -6 24 -8 38 -6 21 4 25 1 25 -18 l0 -24 191 0 191 0 -5 105 c-4 69
-2 105 4 105 7 0 9 23 7 58 l-3 58 33 0 c17 0 32 0 32 -1 0 0 -5 -16 -10 -35
-7 -22 -8 -83 -4 -162 l7 -128 113 0 114 0 2 48 c1 26 2 76 3 112 0 73 20 140
40 140 8 0 11 7 8 20 -3 12 0 20 8 20 7 0 10 2 7 5 -11 12 -37 -8 -43 -33 -7
-27 -7 -27 -17 -5 -8 17 -7 26 7 39 11 12 14 19 6 22 -19 6 -12 32 14 55 23
21 24 25 13 77 -6 33 -21 66 -35 82 -20 21 -24 32 -18 58 4 17 13 34 21 37 8
3 11 9 8 15 -3 5 -12 1 -19 -9 -15 -20 -33 -11 -19 9 5 7 9 26 9 42 0 23 -6
32 -30 42 -58 23 -103 -22 -92 -93 5 -27 1 -35 -32 -57 -20 -14 -42 -26 -48
-26 -6 0 -22 -13 -35 -28 -23 -28 -24 -28 -53 -10 -17 10 -37 18 -46 18 -31 0
-38 22 -24 75 7 28 9 59 5 70 -4 11 1 130 11 265 10 135 27 371 38 525 11 154
25 336 31 405 6 69 19 233 30 365 18 222 30 354 46 513 l7 62 36 1 36 1 -32
10 c-18 6 -33 14 -33 18 0 10 14 12 360 60 162 22 392 54 510 70 118 16 249
34 290 39 41 6 134 19 205 30 72 10 177 25 235 32 58 7 96 15 85 17 -11 2 -26
9 -34 16 -12 9 -13 8 -6 -3 7 -11 2 -13 -25 -8 -18 4 -36 7 -41 7 -5 0 -9 5
-9 11 0 5 5 7 10 4 6 -3 10 -1 10 4 0 6 -5 11 -11 11 -7 0 -9 13 -5 38 3 20 3
32 1 27 -3 -6 -20 -9 -39 -7 -18 2 -36 0 -40 -6 -3 -5 5 -7 18 -5 28 6 41 -20
30 -63 -5 -19 -4 -25 5 -20 6 4 11 3 11 -3 0 -6 -15 -12 -32 -15 -236 -34
-287 -39 -268 -26 11 7 11 10 2 10 -18 0 -33 43 -18 52 8 5 8 10 -1 19 -10 10
-9 15 3 23 13 10 9 12 -17 14 -46 4 -50 12 -5 12 34 0 37 2 30 22 -6 21 -5 22
10 9 20 -17 54 -22 62 -9 3 4 -4 8 -16 8 -13 0 -19 4 -14 11 3 6 19 9 34 7 21
-3 27 -1 22 10 -3 10 0 13 9 10 8 -3 13 -13 11 -23 -5 -24 20 -14 33 13 11 24
38 31 29 7 -4 -8 -1 -15 5 -15 6 0 11 7 11 16 0 11 5 14 16 10 9 -3 18 -6 20
-6 2 0 4 -7 4 -16 0 -8 -4 -13 -8 -10 -13 8 -35 -11 -28 -23 5 -7 14 -7 31 1
18 8 23 17 20 32 -6 25 1 36 34 54 15 9 26 10 30 4 4 -7 13 -5 25 4 19 13 19
14 1 34 -10 11 -15 20 -11 20 5 0 21 -14 37 -31 22 -23 27 -35 19 -44 -8 -9
-6 -14 5 -19 17 -6 20 13 6 60 -8 29 -8 31 18 26 14 -3 30 -11 34 -18 10 -18
27 -18 27 0 0 16 35 27 57 19 8 -3 19 -15 23 -27 7 -16 9 -17 9 -4 1 9 -3 20
-9 23 -18 11 -11 24 21 41 28 14 31 14 26 1 -3 -9 1 -18 9 -21 8 -3 13 -2 10
3 -3 5 2 15 11 22 12 10 15 10 9 1 -12 -20 4 -52 26 -52 20 0 21 1 3 20 -25
28 -14 35 17 10 23 -17 27 -18 32 -4 9 23 8 26 -6 18 -10 -5 -10 -4 -1 6 6 7
19 10 29 6 15 -6 16 -8 0 -24 -20 -23 -20 -32 0 -32 9 0 12 5 8 12 -5 8 -2 9
10 5 12 -5 16 -3 13 5 -2 7 0 21 5 31 8 15 12 16 24 6 25 -20 37 -49 21 -49
-7 0 -18 10 -23 23 -6 12 -9 16 -7 9 2 -8 3 -21 3 -30 0 -13 9 -17 37 -17 21
0 44 6 51 13 17 15 44 16 60 0 8 -8 19 -3 42 22 23 25 28 35 18 41 -7 4 -10
10 -7 13 8 9 70 -24 64 -34 -2 -4 10 -15 28 -24 17 -8 26 -16 20 -16 -7 0 -13
-4 -13 -9 0 -6 16 -7 37 -4 25 4 34 3 29 -5 -4 -6 -12 -9 -19 -6 -7 2 -22 -4
-32 -16 -10 -11 -24 -20 -32 -20 -7 0 -13 -7 -13 -15 0 -8 -7 -15 -15 -15 -18
0 -20 40 -2 40 29 1 -25 21 -62 23 -23 1 -41 5 -41 10 0 13 -21 8 -38 -10 -16
-16 -16 -16 1 -10 10 4 28 2 40 -5 12 -6 28 -14 35 -17 21 -10 19 -25 -5 -36
-13 -5 -23 -16 -23 -24 0 -11 3 -11 15 -1 13 11 18 10 29 -6 8 -10 12 -22 10
-26 -8 -13 11 -9 25 5 10 10 11 9 6 -5 -4 -10 -21 -17 -45 -20 -21 -2 -36 0
-34 4 3 5 12 8 20 8 8 0 14 7 14 16 0 9 -7 14 -18 12 -28 -4 -45 11 -31 28 9
11 7 14 -14 14 -29 0 -54 -24 -36 -35 8 -6 8 -10 -2 -16 -16 -10 -28 -3 -37
22 -5 13 -11 16 -22 8 -13 -8 -12 -12 5 -25 17 -13 18 -16 5 -25 -12 -8 -10
-10 10 -8 14 1 39 0 55 -1 l30 -2 -30 -8 c-16 -4 -49 -6 -73 -4 -28 2 -40 -1
-36 -8 4 -7 2 -8 -4 -4 -7 4 -20 2 -29 -3 -31 -18 24 -13 336 28 163 22 343
46 401 53 l105 13 5 70 5 70 7 -95 c3 -52 3 -98 0 -101 -4 -3 -180 -27 -392
-53 -212 -26 -428 -54 -480 -62 -52 -8 -102 -14 -109 -14 -19 0 -5 -13 32 -28
16 -7 26 -8 22 -2 -9 14 -1 13 40 -7 33 -16 49 -36 24 -30 -6 1 -14 -4 -16
-10 -3 -7 0 -13 6 -13 16 0 235 -104 225 -107 -5 -1 -45 -7 -88 -12 -70 -8
-83 -7 -105 8 -40 28 -59 35 -28 11 31 -25 34 -36 10 -36 -10 0 -63 -6 -118
-12 -153 -19 -293 -18 -337 2 -38 16 -49 11 -26 -12 10 -10 10 -15 -2 -22 -17
-10 -26 -6 -153 77 -97 63 -111 83 -59 83 50 0 377 50 405 61 15 6 27 15 27
20 0 9 -27 7 -235 -22 -77 -10 -331 -44 -565 -75 -234 -31 -497 -66 -585 -78
l-160 -22 -3 -60 -3 -60 51 -18 c27 -10 47 -22 44 -27 -3 -5 -10 -7 -15 -4 -5
4 -14 3 -20 -1 -8 -4 -7 -9 2 -15 11 -7 9 -9 -5 -9 -20 0 -20 0 0 -14 10 -8
16 -18 12 -22 -4 -3 4 -16 18 -26 24 -20 28 -20 120 -4 52 9 106 16 120 16 44
0 25 15 -53 44 -43 15 -110 40 -150 54 -40 14 -70 28 -68 30 3 4 205 -59 250
-78 40 -16 60 -24 70 -25 23 -4 75 -19 145 -42 75 -25 108 -41 60 -29 -20 5
-19 3 5 -8 50 -22 88 -29 80 -14 -4 7 -1 6 7 -2 17 -20 128 -63 128 -49 0 9
42 3 68 -10 7 -4 -65 -7 -160 -7 -124 0 -173 -3 -176 -12 -2 -7 -9 -12 -17
-12 -11 0 -25 -41 -25 -78 0 -16 35 -14 221 13 126 18 122 17 137 38 8 10 26
17 47 17 27 0 33 3 28 15 -5 13 3 13 48 -3 30 -11 80 -27 112 -36 31 -9 57
-19 57 -22 0 -3 -9 -2 -20 1 -11 3 -20 4 -20 1 0 -7 167 -58 235 -72 11 -2 25
-10 31 -19 6 -8 13 -12 16 -10 3 3 27 -5 54 -17 27 -12 58 -25 69 -29 16 -6
17 -7 3 -8 -11 -1 -15 -7 -12 -15 3 -8 -4 -21 -16 -29 -34 -24 -10 -27 111
-16 63 6 142 9 176 5 54 -4 234 -59 289 -87 11 -6 36 -9 54 -7 34 4 35 3 55
-56 17 -52 24 -61 46 -64 22 -3 27 2 33 29 3 17 6 46 6 64 l0 33 68 7 c108 10
112 12 25 14 -80 1 -83 2 -89 27 -5 21 -2 31 17 46 24 18 24 19 5 33 -20 15
-20 15 0 15 19 0 197 14 322 25 l62 6 0 -206 0 -205 -30 0 c-16 0 -197 -11
-402 -25 -205 -13 -539 -34 -743 -45 -203 -12 -370 -22 -371 -23 -4 -4 -44
-909 -44 -995 0 -76 3 -93 18 -102 14 -9 11 -10 -15 -5 -26 5 -34 2 -43 -15
-18 -33 -9 -65 20 -68 14 -2 31 -11 38 -20 12 -15 13 -13 7 15 -3 18 -2 34 4
38 6 3 11 0 11 -8 0 -8 7 -20 15 -27 8 -7 15 -19 15 -27 0 -8 14 -34 30 -58
42 -62 37 -115 -11 -115 -15 0 -16 -5 -8 -32 5 -18 9 -47 9 -64 0 -29 6 -34
73 -67 39 -19 92 -39 116 -42 34 -6 41 -9 28 -17 -11 -6 -24 -5 -38 2 -20 11
-21 10 -14 -57 10 -107 14 -123 35 -123 11 0 20 9 23 23 l4 22 2 -22 c0 -13 6
-23 12 -23 13 0 2 78 -13 98 -12 13 2 16 38 6 19 -5 21 -12 19 -55 l-2 -49
116 0 c108 0 114 1 93 16 -28 19 -20 34 19 34 19 0 29 5 29 15 0 8 5 15 10 15
6 0 10 -9 10 -19 0 -11 5 -21 11 -23 8 -3 6 -10 -5 -21 -16 -16 -10 -17 105
-17 l122 0 -7 60 -7 61 63 -3 63 -3 3 -57 3 -58 350 1 c346 1 350 1 333 20
-15 17 -16 19 -2 14 9 -4 19 -13 22 -21 5 -12 59 -14 365 -13 330 1 359 2 355
17 -5 14 -4 14 6 0 9 -15 26 -18 90 -18 78 0 79 0 83 28 l4 27 2 -27 1 -28
100 0 c73 0 100 3 100 13 0 8 3 7 10 -3 15 -24 24 -2 13 34 -11 37 -7 49 20
59 12 5 16 3 11 -5 -5 -7 -2 -9 9 -5 12 4 14 2 10 -10 -5 -12 -3 -14 7 -8 7 5
11 4 8 -1 -3 -5 6 -20 20 -34 17 -18 23 -20 19 -8 -4 10 -3 17 1 16 8 -1 39 9
62 21 9 5 15 25 16 52 2 41 2 42 -4 9 l-7 -35 -28 29 c-27 29 -34 46 -19 46 4
0 13 -5 20 -12 7 -7 12 -8 12 -2 0 6 -10 19 -22 30 -12 10 -18 13 -13 5 5 -10
4 -12 -6 -7 -8 3 -22 9 -31 12 -10 4 -18 15 -18 25 0 11 -4 19 -10 19 -5 0
-10 -4 -10 -10 0 -5 -4 -10 -10 -10 -6 0 -6 9 0 25 7 18 6 25 -2 25 -6 0 -9 3
-5 6 3 4 14 3 24 -1 35 -15 83 -15 83 1 0 8 -5 13 -12 12 -6 -2 -14 6 -16 17
-4 16 -2 17 10 7 12 -9 19 -9 34 2 10 8 15 18 11 22 -4 5 -12 2 -18 -6 -8 -13
-10 -13 -19 0 -8 11 -3 22 20 42 34 31 37 38 14 38 -8 0 -12 5 -9 10 4 6 11 8
16 5 5 -4 9 -1 9 5 0 6 4 9 9 5 5 -3 12 4 16 15 4 11 11 18 16 15 5 -4 9 3 9
14 0 11 4 23 10 26 5 3 10 1 10 -4 0 -6 5 -11 10 -11 6 0 9 10 7 23 -2 12 -2
17 0 10 2 -7 12 -9 21 -7 13 5 14 4 3 -4 -8 -6 -9 -12 -3 -16 5 -3 13 1 16 10
4 9 13 14 21 10 8 -3 15 -1 15 5 0 6 5 7 10 4 6 -3 10 -2 10 3 0 6 -16 9 -35
7 -19 -2 -35 1 -35 6 0 5 11 9 25 9 18 0 25 5 25 20 0 11 4 28 9 38 5 9 13 26
17 37 7 19 7 19 11 2 3 -10 11 -16 18 -13 21 8 27 -25 8 -41 -16 -13 -16 -13
5 -3 17 8 21 17 17 31 -4 11 -2 19 4 19 19 0 12 17 -11 27 -15 6 -18 12 -10
17 7 4 12 2 12 -3 0 -6 5 -11 10 -11 6 0 10 9 10 20 0 11 5 20 11 20 6 0 9 7
5 15 -3 9 0 15 9 15 22 0 20 -50 -2 -51 -17 0 -17 -1 0 -8 10 -4 18 -10 18
-14 -4 -33 3 -22 8 13 4 32 11 45 22 45 9 0 24 8 34 18 10 10 23 16 30 13 8
-3 10 4 7 20 -2 13 -8 24 -13 24 -5 0 -6 -7 -3 -15 5 -11 2 -13 -10 -9 -11 4
-16 1 -16 -11 0 -12 -5 -15 -20 -10 -12 4 -20 2 -20 -5 0 -6 -5 -8 -10 -5 -6
3 -10 11 -10 16 0 6 5 7 10 4 6 -3 10 -2 10 3 0 6 8 9 17 8 10 0 18 5 19 12 1
6 2 16 3 21 0 5 12 12 26 15 14 4 25 11 25 16 0 6 7 10 15 10 11 0 15 11 15
36 0 31 2 35 21 29 15 -5 19 -4 15 4 -4 6 -3 11 3 11 5 0 13 -5 16 -10 3 -6
11 -10 18 -10 8 0 8 3 -1 12 -18 18 -14 31 8 25 11 -3 23 -1 26 4 9 15 24 10
24 -7 0 -11 6 -13 19 -9 11 3 25 -1 34 -10 20 -19 33 -20 17 0 -7 8 -9 23 -6
32 5 16 4 16 -6 3 -16 -18 -40 -19 -51 -3 -4 7 -15 13 -22 13 -8 0 -15 5 -15
10 0 6 7 10 15 10 9 0 16 10 16 28 1 20 3 17 8 -13 8 -52 35 -56 38 -5 2 27 1
30 -6 15 -5 -11 -7 -23 -4 -27 2 -5 -1 -8 -6 -8 -17 0 -13 56 5 70 13 11 16
10 20 -8 4 -12 11 -19 20 -15 8 3 14 -1 14 -11 0 -9 4 -16 10 -16 10 0 3 27
-13 48 -5 6 -6 12 -2 12 4 0 2 6 -4 14 -8 10 -9 16 -1 21 5 3 10 0 10 -7 1
-20 39 -66 40 -48 1 21 66 61 88 54 13 -5 14 -4 3 4 -12 9 -12 13 2 27 10 9
15 20 12 25 -3 5 0 10 6 12 7 2 7 12 -2 31 -15 33 0 58 24 39 8 -7 17 -9 20
-5 4 3 7 -11 7 -33 0 -40 14 -73 25 -62 4 3 2 15 -4 26 -19 35 -13 62 16 73
17 6 28 6 32 0 4 -6 12 -6 21 -1 10 7 11 10 3 10 -8 0 -13 13 -13 33 0 32 2
33 33 30 27 -2 25 0 -13 11 l-45 14 62 -2 c49 -2 62 0 66 13 3 13 -4 15 -37
13 -23 -2 -54 -5 -71 -6 -16 -1 -36 -5 -42 -9 -8 -5 -13 -4 -13 2 0 6 4 11 10
11 5 0 7 6 4 13 -5 15 10 30 41 40 17 6 18 5 5 -6 -21 -17 -23 -37 -4 -37 8 0
13 4 10 9 -3 5 17 12 45 16 30 4 46 10 39 15 -20 13 8 17 119 19 58 1 107 3
110 5 3 2 65 7 136 10 72 4 270 16 440 26 171 11 400 24 510 30 110 6 304 17
430 25 127 8 412 25 635 39 557 35 848 55 892 62 59 9 110 53 130 110 9 27 27
77 41 111 14 35 24 63 22 63 -2 0 -19 -9 -37 -19 -27 -16 -79 -23 -308 -40
-151 -12 -302 -23 -335 -26 -33 -3 -96 -7 -140 -10 -44 -3 -197 -14 -340 -25
-235 -18 -399 -29 -1100 -75 -121 -8 -303 -19 -405 -25 -102 -5 -219 -12 -260
-15 -105 -7 -198 -13 -480 -30 -135 -8 -272 -17 -305 -20 -76 -6 -282 -15
-452 -20 -88 -3 -135 -1 -139 7 -5 7 8 9 39 5 43 -5 45 -5 51 24 3 17 12 29
21 29 8 0 15 5 15 10 0 6 -6 10 -14 10 -20 0 -28 27 -10 34 8 3 13 2 10 -3 -3
-5 0 -11 8 -14 15 -6 16 9 3 31 -6 8 -1 12 16 12 14 0 30 7 37 15 9 11 16 13
24 5 14 -14 83 -12 98 3 9 10 19 11 39 3 41 -15 57 4 53 59 -3 28 0 45 7 45 6
0 9 -21 8 -57 -3 -63 4 -71 47 -48 l29 15 -32 0 c-33 0 -33 0 -33 50 0 44 -3
50 -21 50 -18 0 -20 -5 -18 -52 3 -48 1 -53 -19 -56 -15 -2 -27 6 -42 30 l-20
33 0 -31 c0 -28 -4 -32 -37 -38 -28 -4 -41 -2 -49 9 -14 19 -44 20 -44 1 0 -7
-11 -16 -25 -18 -31 -6 -32 5 -6 87 16 52 22 60 46 63 20 3 28 -2 32 -17 3
-11 10 -18 16 -14 5 3 7 1 4 -4 -4 -6 -1 -28 7 -49 13 -38 14 -38 8 29 l-5 69
29 -4 c18 -2 33 -12 40 -26 18 -36 26 -39 18 -7 -4 17 -14 34 -22 39 -12 7
-12 10 -1 17 9 6 10 9 2 9 -6 0 -15 -4 -18 -10 -3 -5 -17 -10 -31 -10 -18 0
-24 -5 -24 -22 0 -21 0 -21 -14 -3 -8 11 -12 23 -10 26 2 4 -5 5 -16 2 -12 -3
-20 0 -20 7 0 7 -9 1 -20 -13 -11 -14 -20 -30 -20 -35 0 -5 -7 -12 -15 -16
-10 -3 -15 1 -15 13 0 11 6 22 13 24 6 3 -6 6 -27 6 -25 1 -43 7 -52 19 -11
16 -13 15 -24 -12 -6 -16 -13 -26 -16 -23 -8 8 6 47 17 47 5 0 9 7 9 16 0 8 5
12 10 9 6 -4 7 -11 4 -17 -4 -7 -2 -8 4 -4 15 9 16 53 2 61 -12 7 -4 25 11 25
5 0 9 -9 9 -19 0 -14 5 -18 20 -14 11 3 20 9 20 15 0 5 8 4 19 -2 13 -7 22 -7
26 0 3 5 1 11 -4 11 -6 1 -15 3 -21 4 -5 1 -20 3 -32 4 -22 2 -22 3 -3 11 12
5 -19 6 -75 3 -54 -3 -98 -10 -102 -17 -5 -8 -8 -7 -8 2 0 8 -7 11 -17 8 -10
-2 -74 -7 -143 -10 l-125 -5 140 14 c140 14 616 53 1205 100 498 40 1026 83
1265 105 231 21 437 39 745 65 102 9 309 27 460 41 151 14 322 30 380 35 58 4
119 11 135 15 17 3 77 7 135 8 83 1 112 -3 139 -17 27 -14 37 -15 44 -5 6 10
8 9 4 -2 -2 -8 4 -23 13 -33 15 -15 21 -16 46 -6 16 7 32 13 36 13 3 1 21 12
40 26 32 24 63 27 82 9 6 -5 2 -9 -12 -9 -12 0 -22 -5 -22 -11 0 -7 12 -9 30
-7 17 3 33 1 36 -4 3 -4 -4 -8 -15 -8 -12 0 -21 -4 -21 -8 0 -6 44 -8 60 -2
15 6 46 -4 57 -18 10 -14 11 -10 7 23 -3 27 -2 34 4 21 8 -19 9 -18 15 4 9 35
16 22 21 -44 3 -32 8 -61 12 -65 3 -3 5 9 2 26 -3 23 -1 33 9 33 8 0 25 7 39
16 13 9 27 14 31 10 3 -3 1 -6 -6 -6 -9 0 -8 -8 3 -28 9 -15 20 -39 26 -55 5
-15 14 -27 20 -27 11 0 8 35 -3 46 -4 4 -7 14 -7 21 0 12 3 12 15 -1 8 -8 15
-21 15 -29 0 -33 11 -47 30 -37 20 11 35 -2 42 -35 2 -11 11 -19 21 -19 9 1
17 -5 17 -13 0 -8 4 -12 10 -8 5 3 7 12 4 19 -4 10 3 13 26 11 40 -3 40 -4 31
-48 -7 -29 -6 -37 5 -37 16 0 19 -17 4 -22 -6 -2 -12 -13 -15 -26 -3 -19 -1
-21 16 -12 10 6 20 21 20 33 1 17 2 18 6 4 2 -10 10 -16 16 -15 7 2 13 -2 15
-7 1 -6 -4 -10 -10 -10 -7 0 -13 -7 -13 -15 0 -8 -6 -15 -14 -15 -8 0 -16 -5
-18 -11 -2 -7 8 -9 27 -6 16 2 27 8 24 13 -3 5 0 9 5 9 6 0 11 -12 11 -26 0
-14 4 -23 10 -19 6 3 10 1 10 -5 0 -6 -14 -13 -30 -17 -17 -3 -33 -10 -37 -16
-4 -7 0 -8 12 -3 11 4 22 1 27 -6 8 -10 11 -10 15 0 5 13 24 17 22 5 -4 -23 3
-30 26 -25 15 2 25 0 25 -7 0 -6 -11 -11 -25 -11 -34 0 -32 -18 3 -26 44 -9
74 -23 68 -33 -11 -17 6 -42 24 -36 10 3 21 1 25 -4 3 -6 0 -8 -8 -5 -9 3 -13
-2 -13 -17 2 -44 -22 -30 -35 21 -7 27 -16 50 -21 50 -10 0 -10 -3 2 -34 8
-22 7 -26 -8 -26 -14 0 -12 -4 8 -19 20 -16 22 -22 12 -34 -11 -13 -8 -15 18
-13 24 2 32 -2 36 -20 5 -20 9 -21 31 -13 31 11 43 11 43 0 0 -6 -8 -10 -17
-10 -112 -4 -298 -22 -307 -31 -7 -7 1 -10 26 -10 20 0 43 -3 52 -6 10 -4 16
-1 16 7 0 11 17 13 77 11 50 -3 72 -7 62 -13 -11 -7 -11 -9 3 -9 9 0 22 8 28
18 9 14 10 11 4 -13 -4 -16 -7 -41 -8 -55 -1 -20 -6 -25 -26 -23 -14 1 -19 -1
-12 -4 10 -4 10 -8 1 -19 -8 -10 -7 -17 5 -30 10 -9 20 -13 24 -9 4 4 1 10 -5
12 -13 5 -19 33 -8 33 3 0 17 -12 30 -26 13 -14 26 -25 29 -25 16 2 17 0 7
-13 -9 -10 -8 -15 3 -19 8 -3 16 -4 18 -2 7 8 -4 85 -13 85 -4 0 -6 -7 -2 -16
5 -13 2 -15 -18 -9 -31 10 -42 28 -24 38 18 9 20 37 4 37 -8 0 -8 5 1 15 13
16 50 21 50 6 0 -5 -7 -12 -16 -15 -12 -5 -14 -10 -5 -20 6 -7 7 -16 3 -21 -4
-4 0 -6 8 -3 8 3 14 14 13 24 -1 10 4 22 10 26 8 5 6 12 -8 22 -11 8 -23 12
-27 10 -4 -2 -9 0 -13 6 -8 13 8 13 40 -2 20 -9 25 -18 23 -42 -1 -17 -5 -36
-9 -41 -10 -13 7 -42 18 -32 4 5 1 12 -7 17 -13 8 -12 10 3 10 10 0 17 -8 17
-20 0 -11 5 -20 12 -20 6 0 9 -2 6 -5 -3 -3 -18 -1 -33 5 -27 10 -27 10 -21
-21 3 -17 6 -35 6 -39 0 -4 15 -11 33 -15 29 -7 30 -8 8 -12 -13 -3 -28 0 -34
6 -16 16 -37 13 -37 -4 0 -10 10 -15 29 -15 17 0 33 -5 36 -10 3 -6 1 -10 -6
-10 -7 0 -9 -3 -5 -7 4 -5 14 1 22 12 14 19 14 19 12 -5 -3 -25 -15 -40 -33
-40 -5 0 -3 5 5 11 12 9 11 10 -7 6 -12 -3 -22 -2 -21 2 2 20 -4 30 -17 25 -8
-4 -15 -16 -15 -29 0 -30 -26 -53 -42 -37 -15 15 -55 15 -64 1 -5 -8 3 -10 25
-7 32 5 44 -8 14 -14 -10 -2 3 -4 29 -4 25 1 44 5 40 10 -3 5 5 7 17 3 16 -4
21 -2 18 8 -4 9 1 11 15 7 11 -3 15 -8 9 -11 -6 -4 -13 -21 -17 -38 -5 -25 -2
-31 15 -36 14 -3 19 -10 15 -20 -3 -8 -1 -18 5 -22 6 -3 11 -11 11 -17 0 -7
-6 -6 -15 2 -8 7 -15 20 -15 30 0 25 -41 34 -60 13 -14 -14 -13 -15 8 -10 12
3 22 1 22 -4 0 -8 -10 -11 -30 -11 -3 0 -16 3 -30 7 -23 7 -24 7 -10 -10 14
-17 13 -18 -2 -12 -10 3 -18 2 -18 -3 0 -6 19 -7 45 -3 46 6 55 1 33 -20 -18
-17 -71 -15 -85 3 -7 9 -12 10 -13 4 0 -16 25 -35 41 -32 8 2 13 -5 13 -14 -1
-10 2 -18 7 -18 5 0 9 -7 9 -16 0 -11 -6 -13 -19 -9 -16 5 -19 1 -18 -15 1
-20 27 -29 27 -9 0 5 8 9 18 8 36 -3 52 2 52 17 0 8 5 12 10 9 8 -5 8 -11 1
-19 -6 -7 -8 -16 -4 -19 3 -4 -12 -7 -35 -7 -44 0 -54 -14 -29 -39 10 -10 7
-11 -14 -6 -16 4 -30 2 -33 -4 -11 -16 -26 -13 -20 4 3 8 9 14 12 13 23 -2 35
3 26 12 -5 5 -20 7 -32 3 -31 -8 -27 -48 5 -49 13 -1 20 3 17 10 -3 6 2 2 11
-9 12 -15 18 -17 24 -7 6 10 11 9 22 -4 11 -14 11 -16 0 -10 -8 5 -17 3 -22
-5 -8 -12 -11 -12 -18 1 -6 8 -14 11 -18 6 -4 -4 1 -14 11 -22 23 -16 31 -45
11 -38 -7 3 -16 12 -19 20 -3 8 -15 14 -26 14 -15 0 -20 7 -20 25 0 14 -5 25
-11 25 -5 0 -7 5 -4 10 9 15 -4 12 -20 -4 -8 -7 -11 -16 -8 -20 4 -3 -5 -6
-20 -6 -14 0 -29 -5 -32 -10 -8 -13 44 -2 63 13 8 7 12 5 12 -6 0 -9 -9 -19
-21 -22 -20 -7 -21 -16 -4 -57 5 -13 2 -18 -9 -18 -9 0 -16 5 -16 10 0 6 -4
10 -10 10 -5 0 -10 -4 -10 -8 0 -13 48 -32 65 -26 8 4 22 3 30 0 13 -5 9 -12
-17 -34 -18 -16 -41 -31 -50 -35 -19 -7 -25 -27 -8 -27 6 0 20 10 32 22 11 11
35 22 52 23 28 3 31 0 31 -26 0 -16 -4 -29 -9 -29 -4 0 -22 -11 -38 -25 -22
-18 -34 -23 -42 -15 -9 7 -16 3 -26 -15 -18 -34 -26 -31 -40 10 -10 31 -14 34
-28 23 -12 -10 -16 -10 -19 0 -6 16 -23 16 -23 -1 0 -22 34 -49 47 -36 8 8 13
7 18 -1 10 -15 -12 -29 -35 -23 -22 6 -37 -16 -19 -28 15 -9 14 -11 -21 -26
-25 -12 -25 -12 -2 -12 l23 -1 -21 -22 c-21 -23 -27 -44 -10 -33 14 9 12 -9
-2 -23 -10 -10 -10 -17 0 -32 17 -27 15 -34 -4 -15 -19 19 -19 19 -28 -19 -6
-26 -5 -28 8 -17 13 11 16 11 16 1 0 -9 3 -10 14 -1 10 9 15 8 20 -4 3 -8 1
-15 -3 -15 -5 0 -9 -16 -8 -35 1 -25 5 -34 14 -31 7 3 13 1 13 -4 0 -5 -11 -9
-24 -8 -18 2 -22 6 -17 16 9 17 2 60 -11 68 -5 3 -15 0 -23 -6 -18 -15 -17
-18 -20 48 -2 54 -14 73 -45 71 -11 -1 -11 -2 2 -6 14 -3 15 -9 8 -29 -12 -31
-12 -34 -1 -34 5 0 12 12 14 28 2 15 5 3 6 -26 1 -39 -3 -54 -14 -58 -9 -4
-14 -14 -13 -23 2 -11 -4 -15 -19 -14 -15 2 -23 -3 -23 -12 0 -11 10 -13 49
-8 28 3 51 1 55 -5 4 -6 -9 -9 -35 -8 -27 2 -43 -2 -46 -11 -4 -10 -9 -11 -19
-2 -8 7 -18 8 -22 4 -4 -4 -1 -10 5 -12 15 -5 17 -33 3 -33 -5 0 -10 3 -10 8
0 4 -18 7 -40 7 -22 0 -40 -3 -40 -7 0 -11 39 -30 49 -23 11 6 41 -4 41 -15 0
-12 -68 -50 -89 -50 -9 0 -22 5 -29 12 -9 9 -15 9 -24 0 -9 -9 -8 -12 8 -12
18 -1 54 -22 54 -33 0 -3 -9 -3 -20 0 -11 3 -27 0 -35 -7 -17 -14 -20 1 -4 17
9 9 6 10 -10 6 -20 -5 -22 -11 -19 -52 2 -39 0 -47 -14 -47 -12 0 -14 4 -8 10
16 16 11 30 -5 16 -12 -10 -15 -9 -15 4 0 10 -5 14 -11 11 -6 -4 -8 -14 -5
-22 5 -12 1 -14 -14 -10 -11 3 -18 1 -15 -3 9 -15 -15 -22 -30 -10 -11 9 -15
9 -15 1 0 -6 5 -11 10 -11 6 0 10 -4 10 -10 0 -5 -12 -10 -26 -10 -22 0 -25
-3 -20 -23 3 -12 6 -25 6 -28 0 -12 74 -8 82 4 6 9 8 9 8 0 0 -10 93 -13 430
-13 l431 0 -2 697 c-1 507 -4 700 -13 706 -8 6 -8 10 2 14 8 3 12 31 12 90 0
70 -3 88 -17 99 -17 13 -17 13 0 14 16 0 17 119 17 2365 l0 2365 -6400 0
-6400 0 0 -1675z m10353 -397 c17 -99 29 -230 21 -238 -5 -5 -126 -25 -269
-46 -143 -20 -267 -42 -275 -49 -8 -7 -31 -18 -52 -24 -39 -13 -55 -36 -38
-56 5 -6 7 -14 4 -18 -13 -12 16 -41 43 -43 71 -4 79 -7 38 -14 -100 -18 26
-8 186 14 96 14 209 28 251 32 l76 7 6 -44 c24 -176 27 -222 14 -230 -7 -5
-36 -11 -65 -15 -29 -3 -51 -9 -49 -13 2 -3 -17 -5 -42 -4 -43 1 -44 1 -12 -6
32 -6 28 -8 -45 -20 -44 -7 -100 -15 -125 -18 -90 -10 -194 -33 -208 -47 -7
-7 -16 -31 -19 -53 -6 -44 11 -66 51 -65 14 0 27 -7 30 -14 3 -8 19 -13 38
-13 l33 2 -35 7 c-21 4 -27 8 -15 10 22 2 41 4 100 13 102 15 160 18 145 8
-21 -15 -10 -14 165 5 80 9 152 14 158 11 13 -5 37 -180 37 -269 l0 -45 -88
-12 c-49 -6 -99 -11 -113 -12 l-24 -1 25 -7 c29 -9 -131 -31 -240 -34 -36 -1
-67 -5 -70 -8 -3 -3 -102 -18 -220 -33 -285 -35 -361 -33 -384 9 -6 11 -13 22
-16 25 -7 7 -6 1 -35 270 -9 80 -18 151 -21 159 -3 8 -7 73 -10 145 -3 72 -9
147 -15 166 -5 19 -9 46 -9 60 -1 14 -6 37 -13 51 -11 24 -15 26 -37 17 -26
-11 -34 -13 -109 -22 -80 -10 -188 -63 -168 -82 4 -4 2 -13 -4 -20 -11 -13 -7
-132 6 -169 6 -17 5 -18 -5 -5 -9 12 -10 9 -4 -15 5 -16 9 -129 10 -250 1
-121 4 -251 5 -290 3 -74 -11 -115 -37 -115 -8 0 -13 -4 -10 -8 8 -14 -129
-43 -218 -47 -88 -3 -125 21 -139 90 -7 33 -19 159 -21 217 0 20 -4 34 -7 32
-4 -2 -7 11 -8 29 0 17 -3 48 -6 67 -17 105 -37 280 -38 343 0 15 -5 27 -10
27 -5 0 -7 7 -4 15 4 8 2 17 -3 20 -6 4 -10 15 -10 26 0 18 -15 24 -49 20 -7
-2 -11 1 -8 6 7 10 -44 10 -60 0 -7 -5 -13 -4 -13 2 0 5 -22 8 -52 6 -42 -4
-48 -2 -28 5 20 8 15 9 -22 5 -45 -4 -48 -3 -54 21 -4 17 -9 22 -14 14 -5 -7
-13 -9 -21 -5 -9 6 -11 3 -6 -9 4 -11 3 -15 -4 -11 -6 4 -16 0 -22 -10 -7 -9
-35 -20 -62 -24 -39 -7 -43 -9 -20 -11 22 -1 11 -7 -42 -19 -39 -10 -85 -17
-102 -16 -17 1 -31 -1 -31 -4 0 -4 -8 -7 -17 -8 -55 -5 -203 -23 -233 -28 -34
-7 -84 -45 -58 -45 9 0 9 -3 0 -12 -8 -8 -5 -14 15 -25 25 -13 78 -12 156 2
18 3 48 8 67 10 58 7 88 13 99 20 6 3 11 2 11 -4 0 -6 11 -6 33 0 17 5 50 6
72 2 l40 -7 -30 -7 c-29 -7 -29 -8 7 -6 54 2 76 -23 85 -97 9 -74 7 -101 -13
-143 -10 -22 -22 -33 -37 -34 -20 -1 -20 -2 -3 -6 16 -4 11 -8 -20 -19 -21 -8
-56 -16 -78 -19 -21 -3 -42 -7 -47 -10 -9 -6 -61 -13 -129 -17 -22 -1 -40 -5
-40 -8 0 -3 -17 -7 -37 -8 -41 -3 -102 -20 -119 -33 -15 -12 -5 -68 15 -78 9
-4 32 -7 51 -5 19 2 66 5 104 9 37 3 72 8 78 11 5 3 44 8 86 11 42 2 96 5 120
7 25 1 37 -1 30 -6 -8 -4 11 -8 45 -8 l57 0 0 -32 c0 -25 3 -29 10 -18 8 12
10 12 11 -5 0 -11 2 -29 4 -40 3 -11 7 -51 11 -90 6 -66 5 -72 -19 -97 -19
-20 -36 -28 -64 -29 -37 -1 -37 -2 -8 -8 26 -6 23 -8 -30 -16 -33 -5 -71 -9
-85 -11 -14 -1 -50 -5 -80 -9 -30 -4 -64 -8 -75 -8 -11 0 -56 -4 -100 -9 -127
-16 -294 -24 -288 -15 5 9 -129 2 -209 -9 -33 -5 -38 -3 -42 18 -7 35 -29
1104 -23 1121 3 8 25 17 49 20 23 4 203 31 398 61 195 30 381 58 412 61 l57 7
7 -53 c5 -36 9 -47 14 -34 6 17 7 17 13 1 4 -10 5 -22 2 -27 -4 -5 0 -6 8 -3
15 5 27 46 27 90 0 13 8 28 18 33 15 8 277 51 311 51 7 0 10 4 7 9 -4 5 13 7
36 5 36 -3 38 -2 13 4 -28 8 -29 9 -8 16 12 4 31 2 42 -3 27 -15 47 -14 64 4
12 12 86 25 327 57 3 1 13 -2 23 -7 10 -4 64 -1 120 8 55 9 105 13 109 11 4
-3 8 -13 8 -24 0 -13 5 -17 20 -13 11 3 20 0 20 -6 0 -24 19 -9 30 24 6 19 14
35 17 35 3 0 96 14 207 30 110 17 278 42 371 56 200 29 282 41 350 53 28 5 64
9 81 10 28 1 32 -3 37 -31z m-6353 -1345 c0 -21 -3 -62 -7 -91 -5 -46 -9 -53
-24 -49 -11 3 -17 1 -13 -4 3 -5 -1 -9 -8 -9 -11 0 -68 145 -68 173 0 3 21 8
48 10 26 2 53 4 60 5 8 1 12 -11 12 -35z m1250 -57 c39 -13 180 -84 180 -90 0
-3 -17 -3 -37 0 -32 3 -21 -4 62 -46 55 -27 106 -49 113 -50 6 0 12 -4 12 -8
0 -5 -71 -16 -157 -26 -199 -22 -195 -22 -393 -36 -150 -12 -172 -11 -235 5
-37 9 -79 24 -92 32 -13 9 -26 13 -29 10 -3 -3 3 -8 13 -11 10 -3 27 -19 36
-36 17 -29 17 -30 0 -30 -21 0 -245 141 -251 158 -2 8 12 12 42 12 25 0 90 6
144 14 53 8 147 20 209 26 l111 12 34 -24 c54 -41 66 -43 23 -4 l-40 35 35 1
c55 0 112 20 117 40 3 12 11 16 24 13 35 -9 20 6 -31 32 -27 14 -50 27 -50 29
0 3 28 -7 63 -21 34 -14 78 -30 97 -37z m5208 -176 c5 -72 11 -83 39 -77 38 7
53 -1 53 -29 0 -30 -3 -31 -115 -43 -74 -8 -93 -7 -106 5 -18 16 -45 10 -53
-12 -6 -16 -66 -19 -66 -3 0 5 -10 3 -22 -5 -33 -23 -113 -21 -137 3 -15 15
-21 17 -25 6 -9 -25 -59 -42 -139 -49 -53 -4 -84 -2 -97 6 -15 10 -23 9 -39
-6 -14 -12 -30 -17 -51 -14 -17 3 -33 1 -36 -4 -7 -11 -52 -10 -59 2 -4 6 -11
8 -16 5 -5 -4 -12 1 -15 9 -5 13 -9 12 -24 -6 -13 -17 -32 -23 -78 -28 -33 -3
-58 -2 -56 2 7 11 -10 10 -22 -2 -5 -5 -40 -10 -78 -12 -67 -3 -70 -2 -77 22
-4 14 -7 55 -8 93 -1 57 2 67 17 68 9 0 47 3 83 7 58 7 66 6 61 -8 -4 -11 0
-10 17 5 13 12 38 20 64 20 23 1 44 3 47 4 3 1 50 4 105 7 55 3 114 7 131 10
21 4 36 1 47 -10 15 -15 17 -15 34 3 20 21 92 32 135 20 16 -4 36 -2 53 7 35
18 54 18 76 -2 16 -14 18 -14 29 6 9 16 19 20 43 18 29 -3 33 -7 38 -43 3 -22
7 -30 8 -17 0 12 5 22 9 22 5 0 14 11 20 25 9 20 19 25 47 25 31 0 37 -5 60
-47 23 -45 24 -46 23 -18 -2 74 -1 76 40 73 34 -3 37 -5 40 -38z m-4706 -37
c10 3 18 0 18 -6 0 -6 8 -19 17 -29 9 -11 18 -25 19 -32 1 -8 5 -23 8 -34 4
-11 2 -23 -4 -27 -5 -3 -7 -17 -4 -31 4 -17 1 -26 -10 -30 -9 -3 -16 -12 -16
-20 0 -8 -6 -11 -17 -7 -11 4 -14 3 -9 -5 4 -8 2 -10 -7 -6 -8 3 -18 1 -22 -5
-3 -6 -11 -11 -16 -11 -6 0 -8 3 -5 8 2 4 -30 4 -72 1 l-77 -7 -80 54 c-44 30
-93 65 -110 79 l-30 24 35 1 c85 1 254 30 262 44 5 8 15 13 23 10 18 -7 40 13
50 46 l8 25 10 -23 c7 -16 17 -22 29 -19z m3408 -113 c22 -43 25 -54 11 -45
-6 3 -6 -7 0 -27 13 -48 13 -48 -43 -48 -38 0 -49 3 -38 10 13 8 13 10 -1 10
-9 0 -20 -7 -23 -16 -4 -11 -17 -15 -44 -13 -21 2 -52 -3 -69 -10 -22 -9 -41
-10 -65 -3 -23 6 -41 6 -53 0 -18 -11 -44 -14 -162 -23 -44 -4 -74 -2 -78 5
-4 6 -15 4 -31 -6 -26 -18 -112 -25 -121 -10 -4 5 0 6 8 1 12 -8 12 -6 0 8
-14 18 -26 24 -17 8 11 -16 -19 -29 -85 -35 -56 -6 -67 -5 -73 9 -3 9 -10 14
-15 11 -5 -4 -12 2 -14 11 -3 12 -5 9 -6 -8 -1 -20 -8 -29 -26 -33 -35 -9 -42
-3 -50 44 -4 22 -12 40 -18 40 -8 0 -7 3 1 9 10 6 9 10 -7 14 -15 4 -21 13
-21 35 0 36 12 42 88 43 47 0 120 16 87 18 -5 1 3 8 20 17 31 16 75 16 76 -1
1 -17 23 -24 54 -18 17 3 49 6 72 8 24 1 50 9 60 16 14 12 15 12 9 0 -6 -10
-4 -12 10 -7 24 7 126 18 181 20 22 0 39 4 37 7 -2 4 7 7 21 7 14 0 22 -5 19
-10 -4 -6 1 -6 12 0 11 6 37 11 59 12 58 3 67 1 60 -10 -6 -10 10 -6 50 10 11
5 27 10 35 13 26 8 69 -22 90 -63z m-3736 -52 l101 -72 -35 -8 c-19 -5 -105
-9 -190 -11 -134 -2 -158 0 -181 16 -14 9 -34 15 -43 11 -9 -3 -27 1 -41 10
-34 22 -38 20 -19 -9 9 -14 12 -25 8 -25 -5 0 -2 -5 6 -10 8 -5 10 -10 4 -10
-10 0 -148 80 -196 115 -18 12 -9 32 10 22 4 -2 90 6 192 18 286 35 265 38
384 -47z m2601 -11 c21 -32 56 -137 49 -148 -8 -14 -64 -11 -65 4 0 10 -2 10
-6 0 -2 -7 -9 -13 -14 -13 -6 0 -7 5 -4 10 10 16 -6 12 -19 -5 -7 -9 -39 -17
-90 -21 -70 -6 -81 -5 -93 11 -7 11 -13 13 -13 6 0 -21 -70 -44 -97 -32 -32
15 -34 14 -26 -6 7 -17 6 -17 -11 -1 -10 10 -14 23 -10 30 6 9 3 9 -9 -1 -9
-7 -15 -17 -12 -20 5 -9 -5 -11 -78 -15 -53 -2 -57 -1 -51 17 6 18 5 18 -15
-2 -27 -27 -68 -37 -102 -24 -20 8 -29 8 -32 0 -2 -7 -29 -12 -68 -12 l-64 0
0 85 0 85 70 1 c39 1 82 7 97 14 29 14 70 8 89 -13 10 -10 17 -8 35 10 25 25
72 30 105 13 13 -8 19 -7 19 0 0 6 4 9 9 6 5 -3 25 1 46 10 20 8 45 12 55 9
38 -12 60 -14 60 -4 0 5 16 9 35 9 34 0 35 -1 35 -42 0 -30 3 -39 9 -28 6 8 7
18 5 22 -3 4 0 8 7 8 6 0 9 -8 6 -20 -4 -17 -2 -20 14 -15 10 4 19 2 19 -4 0
-5 -10 -12 -22 -14 -20 -5 -20 -5 2 -4 20 2 24 7 23 25 -2 13 1 21 6 18 5 -3
12 6 16 22 4 15 11 33 17 39 17 21 56 15 73 -10z m-2575 -1657 c5 0 11 8 13
18 3 9 5 -32 5 -91 0 -105 -1 -109 -24 -119 -17 -8 -24 -19 -24 -40 0 -15 5
-28 11 -28 6 0 8 7 5 16 -4 12 -2 15 9 11 8 -4 17 -2 20 3 3 4 -1 10 -7 13
-24 9 29 48 56 41 22 -5 23 -3 20 26 -3 26 -1 30 9 21 8 -6 17 -8 20 -4 4 3 7
-2 8 -13 0 -11 3 -13 6 -6 7 18 23 4 24 -21 0 -21 1 -21 9 -2 5 11 9 55 9 98
1 45 5 77 11 77 7 0 9 -31 8 -82 -3 -72 -1 -83 13 -80 11 1 18 -8 23 -29 8
-43 5 -71 -4 -34 -6 24 -8 26 -9 8 0 -13 -5 -23 -11 -23 -5 0 -10 10 -10 23
-1 20 -2 20 -11 4 -10 -17 -12 -17 -35 -2 -28 18 -32 10 -6 -13 10 -10 13 -14
7 -11 -5 3 -31 7 -56 8 -33 2 -49 -2 -60 -15 -12 -16 -12 -17 4 -11 9 3 17 2
17 -3 0 -5 -8 -14 -17 -19 -14 -8 -6 -10 35 -11 28 0 52 -3 52 -7 0 -5 13 -16
29 -25 21 -12 31 -13 34 -5 7 19 41 -6 45 -32 3 -15 -2 -21 -16 -21 -17 0 -18
-5 -11 -42 4 -24 12 -61 18 -83 6 -22 8 -48 5 -58 -6 -18 -7 -18 -25 2 -10 11
-16 27 -13 35 12 31 -5 16 -22 -19 -9 -20 -21 -32 -27 -28 -8 5 -7 8 1 11 25
8 11 17 -30 20 -49 3 -53 6 -62 45 l-7 28 31 -16 c18 -9 30 -11 30 -5 0 6 -8
13 -17 16 -10 3 -29 11 -42 17 -20 10 -26 8 -44 -13 -16 -20 -19 -21 -13 -5
13 35 12 39 -11 43 -20 3 -23 10 -25 50 0 26 -1 55 0 65 2 18 -13 23 -22 8 -3
-5 -16 -7 -29 -3 -21 5 -21 4 -6 -14 28 -33 35 -51 12 -31 -21 18 -21 18 -28
-2 -3 -12 -4 -25 -1 -30 3 -4 -5 -8 -17 -7 -57 3 -4 96 63 111 24 5 30 12 30
32 0 20 -4 24 -19 20 -14 -3 -17 0 -14 14 3 12 14 19 29 19 23 0 24 2 24 88 0
96 12 189 18 140 2 -16 7 -28 12 -28z m-569 -15 c0 -5 0 -43 -1 -83 -1 -70 -1
-73 18 -61 17 11 25 9 52 -15 18 -15 42 -26 54 -25 12 0 40 1 64 0 l42 -1 0
-140 0 -140 -45 0 -45 0 0 68 c-1 59 -4 72 -30 106 -24 32 -29 46 -24 72 9 49
-23 61 -84 31 -12 -6 -20 -17 -18 -24 4 -8 -3 -13 -18 -13 -12 0 -25 -3 -29
-6 -9 -9 21 -36 33 -29 5 3 10 0 10 -8 0 -8 -7 -17 -15 -21 -9 -3 -15 0 -15
10 0 13 -6 15 -27 9 -16 -3 -35 -13 -43 -22 -13 -13 -10 -13 18 1 30 16 33 16
38 -1 3 -10 10 -26 15 -35 13 -25 12 -28 -11 -28 -21 0 -55 -53 -45 -70 3 -6
-1 -10 -9 -10 -9 0 -16 7 -16 15 0 8 -4 15 -10 15 -5 0 -10 12 -10 28 0 19 -3
23 -9 13 -10 -15 -24 -13 -83 13 -44 19 -48 8 -12 -31 17 -19 27 -24 31 -15 4
11 43 18 43 7 0 -3 -7 -17 -16 -30 -10 -15 -12 -25 -5 -25 6 0 16 9 23 20 17
27 25 25 30 -5 3 -14 1 -25 -3 -25 -5 0 -9 -8 -9 -17 0 -16 1 -16 17 -1 15 16
18 16 40 -8 27 -29 29 -44 7 -44 -8 0 -12 -5 -9 -10 3 -5 1 -10 -4 -10 -6 0
-11 5 -11 11 0 7 -9 9 -22 6 -12 -4 -28 -1 -36 5 -10 9 -16 8 -23 -3 -6 -10
-9 -5 -9 19 0 40 -23 88 -49 102 -23 12 -60 1 -80 -24 -7 -9 -18 -13 -24 -9
-6 3 -7 1 -3 -6 4 -6 3 -17 -3 -24 -5 -7 -12 -28 -15 -47 -7 -56 -17 -80 -33
-80 -11 0 -14 7 -10 26 3 20 -1 28 -19 36 -30 14 -31 28 -3 35 15 4 19 11 15
27 -3 11 -6 27 -6 34 0 23 -20 12 -26 -15 -4 -16 -11 -34 -17 -40 -5 -7 -6
-13 -1 -13 5 0 2 -5 -6 -10 -26 -17 -57 -12 -63 10 -5 20 -47 29 -47 10 0 -5
-5 -10 -10 -10 -6 0 -8 11 -4 28 10 41 14 44 37 30 25 -16 60 -12 54 5 -2 7
-17 12 -33 12 -23 0 -30 5 -32 24 -2 14 -11 36 -20 49 -15 23 -15 25 2 38 23
16 43 9 50 -19 3 -12 11 -30 18 -40 12 -15 13 -14 14 13 1 16 -2 30 -7 30 -11
0 -7 41 8 69 l12 25 11 -30 c9 -21 9 -34 0 -47 -13 -21 -8 -30 20 -34 15 -2
20 3 20 18 0 16 4 20 18 14 14 -5 15 -4 5 6 -7 7 -13 23 -13 36 0 13 -4 23
-10 23 -5 0 -10 -5 -10 -11 0 -8 -5 -8 -15 1 -20 17 -19 27 5 33 17 4 60 -21
60 -36 0 -3 4 -17 10 -32 l10 -26 28 32 28 32 26 -28 c22 -24 28 -26 48 -15
13 7 20 8 16 2 -3 -6 -3 -13 2 -16 10 -6 11 -1 13 64 2 25 7 48 13 52 6 5 1 8
-11 8 -14 0 -23 6 -23 16 0 11 -6 15 -20 11 -19 -5 -20 -1 -18 61 l1 67 6 -55
c5 -46 9 -55 25 -52 11 2 15 -1 11 -7 -3 -6 -1 -11 4 -11 6 0 12 10 12 23 1
17 3 16 8 -7 6 -28 31 -50 31 -27 0 6 -4 11 -10 11 -5 0 -10 4 -10 10 0 5 7 6
17 3 10 -4 14 -2 9 5 -3 6 -2 13 4 17 5 3 10 1 10 -4 0 -6 5 -11 10 -11 6 0
10 9 10 20 0 12 7 20 17 20 13 0 14 3 5 12 -8 8 -9 15 -1 25 9 10 8 13 -5 13
-9 0 -16 -8 -16 -17 0 -15 -2 -16 -10 -3 -12 20 5 29 55 31 39 1 39 1 13 11
-16 5 -28 16 -28 24 0 13 3 13 22 0 29 -21 41 -20 34 2 -5 15 0 18 34 17 22 0
40 -4 41 -10z"/>
<path d="M4085 2395 c11 -9 44 -31 74 -49 l54 -33 -52 5 c-33 3 -51 1 -51 -6
0 -6 -7 -9 -15 -6 -8 4 -22 1 -29 -5 -8 -7 -54 -15 -103 -18 -48 -4 -82 -8
-75 -11 9 -3 11 -14 6 -38 -5 -25 -3 -34 7 -34 11 0 11 -3 -1 -10 -13 -9 -13
-11 0 -19 10 -7 17 -6 22 2 4 7 11 0 18 -18 8 -21 13 -26 19 -16 6 9 10 7 14
-9 5 -18 2 -21 -15 -17 -20 6 -20 5 1 -15 22 -19 23 -19 37 -2 14 17 15 17 10
2 -3 -10 -1 -18 4 -18 6 0 11 -28 11 -62 l2 -63 6 48 c4 27 14 52 22 57 7 5
14 13 14 17 0 4 7 18 16 31 l16 23 6 -23 c6 -22 7 -22 20 -4 8 11 31 20 60 23
26 3 47 10 47 15 0 5 -15 6 -34 3 -18 -4 -36 -3 -40 3 -3 5 29 12 77 16 45 3
103 9 130 13 l47 6 -25 23 c-28 26 -32 51 -10 80 21 27 19 34 -11 34 -14 0
-33 4 -42 9 -9 4 -30 11 -46 15 -26 6 -28 5 -17 -8 22 -26 -3 -19 -102 29 -50
25 -83 38 -72 30z"/>
<path d="M3849 1714 c0 -60 -4 -161 -8 -224 -4 -63 -7 -116 -7 -117 1 -1 13
-4 29 -8 l27 -7 0 63 c0 35 5 132 11 214 l12 151 35 -4 c47 -6 34 14 -15 21
-21 3 -48 9 -60 13 -23 6 -23 6 -24 -102z"/>
<path d="M0 793 l0 -793 179 0 178 0 7 53 c4 28 8 60 8 70 -1 10 7 17 19 17
14 0 18 -6 17 -25 -1 -14 -8 -25 -16 -25 -7 0 -10 -4 -7 -10 3 -5 27 -10 52
-10 37 0 44 -3 39 -16 -3 -9 -6 -22 -6 -30 0 -8 -7 -14 -15 -14 -8 0 -15 5
-15 10 0 6 5 10 12 10 8 0 9 3 2 10 -6 6 -19 8 -28 4 -14 -5 -15 -9 -4 -15 11
-7 10 -11 -2 -19 -10 -6 140 -10 446 -10 l462 0 6 31 c3 17 6 52 6 78 0 26 6
56 14 67 11 16 12 30 5 64 -5 23 -7 45 -4 48 3 3 5 0 5 -6 0 -7 8 -30 17 -52
22 -50 52 -56 45 -9 -3 18 -1 30 4 27 5 -3 18 -2 29 3 17 7 17 8 -7 8 -26 1
-33 9 -29 39 1 6 -2 12 -8 12 -5 0 -8 19 -7 43 1 23 -5 67 -14 98 -12 40 -15
71 -10 110 4 30 5 59 3 65 -2 6 3 19 12 28 12 11 14 21 7 29 -5 7 -6 40 -2 82
5 39 6 72 4 74 -2 2 -65 8 -141 14 -76 5 -140 13 -144 18 -3 5 -140 18 -305
29 -164 11 -315 21 -336 24 -20 2 -41 -1 -46 -6 -7 -7 -48 -8 -116 -3 l-106 7
0 30 c0 17 7 76 15 132 25 169 56 405 59 456 1 11 -29 18 -141 30 l-143 16 0
-793z m830 86 c113 -6 209 -15 214 -19 7 -7 -5 -165 -19 -245 -2 -11 -4 -41
-4 -67 -1 -27 -5 -48 -11 -48 -5 0 -10 11 -10 24 0 30 -9 56 -21 56 -4 0 -6
-7 -3 -15 4 -8 1 -15 -5 -15 -6 0 -11 5 -11 10 0 6 -5 10 -11 10 -6 0 -9 -6
-6 -14 8 -20 -18 -40 -43 -33 -11 3 -20 1 -20 -3 0 -5 10 -11 23 -13 19 -4 18
-4 -6 -6 -15 0 -30 -8 -34 -17 -3 -8 -12 -13 -19 -10 -7 3 -16 1 -19 -5 -4 -5
-11 -7 -16 -3 -6 3 -7 -5 -4 -23 l6 -28 -25 28 c-21 23 -29 26 -46 17 -23 -12
-26 -26 -7 -33 6 -2 9 -7 6 -11 -11 -12 -59 13 -59 31 -1 12 -6 7 -15 -12 -11
-26 -13 -27 -14 -8 -1 16 -6 20 -20 16 -10 -3 -22 0 -25 6 -4 6 0 11 8 11 9 0
16 5 16 10 0 6 -4 10 -9 10 -6 0 -13 -4 -16 -10 -11 -18 -35 -11 -45 13 -5 13
-9 16 -10 7 0 -12 -3 -11 -11 3 -8 13 -14 15 -29 7 -25 -13 -30 -13 -30 3 0 7
-9 13 -20 14 -19 2 -19 2 0 -19 11 -12 18 -24 15 -26 -9 -10 -44 44 -45 68 0
14 8 101 17 194 l18 168 80 -6 c44 -3 172 -11 285 -17z"/>
<path d="M3820 1076 c0 -24 -3 -65 -7 -92 -6 -45 -5 -48 10 -35 16 12 17 10
15 -34 l-1 -47 -71 5 c-39 3 -105 10 -146 16 -41 5 -119 12 -172 16 l-98 6 0
-45 c0 -42 -3 -47 -32 -61 -32 -14 -32 -14 -4 -8 28 6 28 5 24 -36 -2 -24 1
-41 7 -42 5 0 21 -2 34 -5 20 -4 22 -2 11 11 -14 17 0 21 16 5 7 -7 21 -5 42
6 21 10 43 13 62 9 l30 -7 0 73 0 72 61 -6 c33 -3 62 -7 63 -9 9 -10 -18 -384
-28 -390 -6 -4 -32 -8 -58 -8 -43 0 -48 -2 -48 -22 1 -21 2 -21 11 -6 7 13 23
18 59 18 28 0 50 -2 50 -4 0 -23 -23 -55 -42 -59 -20 -4 -20 -4 5 -6 23 -1 27
-5 27 -29 0 -32 -23 -145 -40 -197 -9 -28 -9 -39 1 -51 10 -13 14 -9 25 23 8
21 14 48 14 59 0 12 8 32 19 45 l18 23 7 -38 c4 -20 4 -80 0 -132 l-7 -94 122
0 121 0 0 39 c0 22 5 43 10 46 6 4 10 -12 10 -39 l0 -46 75 0 75 0 1 48 c0 50
12 92 21 76 2 -5 11 -35 18 -66 12 -53 15 -58 40 -58 21 0 29 6 32 23 5 28 -5
183 -12 191 -3 3 -23 1 -45 -4 -22 -5 -61 -10 -87 -10 -51 0 -68 15 -68 63 0
20 -4 23 -23 20 -18 -4 -23 -10 -21 -34 1 -21 -1 -27 -9 -21 -7 5 -33 13 -59
16 -57 8 -65 23 -10 19 l37 -4 -30 16 -30 15 35 -6 c26 -4 31 -3 20 5 -12 9
-10 11 13 11 15 0 27 4 27 8 0 5 -18 7 -40 6 -38 -2 -52 8 -31 21 6 3 5 21 -4
44 -13 39 -31 146 -27 168 2 6 -2 14 -8 18 -6 3 -10 -4 -10 -17 0 -22 -1 -21
-15 6 -21 40 -19 53 13 70 l27 15 -25 2 -25 1 25 7 c20 6 31 1 53 -21 61 -60
63 -58 70 50 4 53 7 118 7 145 l0 47 -50 0 -50 0 5 43 c2 23 7 68 10 99 l6 57
47 18 47 18 -45 7 c-97 14 -100 13 -100 -36z"/>
<path d="M1708 898 c-2 -70 -2 -72 -13 -80 -6 -5 -5 -11 4 -17 8 -5 9 -11 3
-15 -5 -3 -7 -16 -5 -28 2 -13 -3 -104 -12 -203 -9 -99 -20 -238 -25 -310 -5
-72 -12 -156 -15 -187 l-6 -58 175 0 c158 0 175 2 180 18 2 9 8 67 12 127 4
61 9 113 10 118 1 4 2 22 3 40 1 25 6 34 19 34 131 -1 232 5 232 13 0 6 -16
10 -35 10 -24 0 -35 5 -35 15 0 8 -4 15 -10 15 -5 0 -10 -6 -10 -14 0 -13 -60
-26 -125 -26 l-31 0 3 63 c2 34 11 154 19 266 17 249 17 241 0 241 -8 0 -16 5
-18 10 -2 7 -63 12 -161 13 l-157 2 -2 -47z"/>
<path d="M3296 693 c-4 -5 -60 -6 -124 -5 -136 4 -147 -6 -16 -14 49 -3 91 -8
94 -10 10 -11 5 -109 -7 -121 -6 -7 -21 -13 -33 -13 -11 0 -31 -11 -43 -23
-12 -13 -34 -27 -49 -31 -17 -4 -28 -13 -28 -24 0 -9 -7 -26 -15 -36 -21 -28
-19 -42 3 -23 20 18 57 23 66 8 7 -11 7 -29 3 -131 -4 -91 -13 -122 -35 -119
-38 3 -72 -2 -72 -11 0 -5 16 -10 36 -10 36 0 36 -1 30 -32 -4 -18 -9 -47 -12
-65 l-4 -32 165 0 c150 -1 165 1 165 17 0 9 7 30 15 46 21 40 19 50 -7 32 -12
-9 -33 -16 -46 -16 -23 0 -82 26 -82 36 0 2 9 0 21 -6 29 -16 49 -6 42 22 -3
13 -10 29 -16 36 -5 7 -12 70 -14 140 -4 122 -15 182 -34 182 -5 0 -9 -5 -9
-10 0 -6 -6 -5 -14 2 -13 13 -11 42 3 33 12 -7 52 25 46 36 -4 5 1 12 10 15
23 9 45 57 38 84 -5 18 -3 21 13 17 10 -3 36 -8 58 -12 l39 -6 -6 -58 c-3 -40
-1 -63 9 -76 8 -10 14 -17 15 -14 0 2 4 41 7 87 7 78 6 82 -13 83 -11 0 -31 2
-45 5 -14 2 -40 4 -58 5 -17 0 -35 5 -38 10 -6 11 -48 12 -58 2z"/>
</g>
</svg>
